<?xml version="1.0" standalone="no"?><svg xmlns="http://www.w3.org/2000/svg" viewBox="0 0 1440 320"><path fill="#F5E5D5" fill-opacity="1" d="M0,96L24,101.3C48,107,96,117,144,117.3C192,117,240,107,288,133.3C336,160,384,224,432,229.3C480,235,528,181,576,144C624,107,672,85,720,112C768,139,816,213,864,245.3C912,277,960,267,1008,234.7C1056,203,1104,149,1152,122.7C1200,96,1248,96,1296,122.7C1344,149,1392,203,1416,229.3L1440,256L1440,320L1416,320C1392,320,1344,320,1296,320C1248,320,1200,320,1152,320C1104,320,1056,320,1008,320C960,320,912,320,864,320C816,320,768,320,720,320C672,320,624,320,576,320C528,320,480,320,432,320C384,320,336,320,288,320C240,320,192,320,144,320C96,320,48,320,24,320L0,320Z"></path></svg>